<?xml version="1.0" encoding="utf-8"?>
<!-- Generator: Adobe Illustrator 19.2.0, SVG Export Plug-In . SVG Version: 6.00 Build 0)  -->
<svg version="1.1" id="Layer_1" xmlns="http://www.w3.org/2000/svg" xmlns:xlink="http://www.w3.org/1999/xlink" x="0px" y="0px"
	 viewBox="0 0 1920 675" style="enable-background:new 0 0 1920 675;" xml:space="preserve">
<style type="text/css">
	.st0{fill:#FFFFFF;}
	.st1{fill:#2E2A25;}
	.st2{fill:#FF0000;}
</style>
<rect class="st0" width="1920" height="675"/>
<g>
	<path class="st1" d="M623.7,483.8h2.5l4.2,6.7h2.5l-4.2-6.7c2.5,0,4.2-1.7,4.2-4.2c0-3.4-1.7-4.2-5-4.2H622v15.1h2.5v-6.7H623.7z
		 M623.7,481.3v-5h3.4c1.7,0,3.4,0,3.4,2.5s-1.7,2.5-3.4,2.5H623.7z"/>
	<path d="M641.3,483c0,8.4-6.7,15.1-15.1,15.1s-15.1-6.7-15.1-15.1s6.7-15.1,15.1-15.1S641.3,474.6,641.3,483z M626.2,470.4
		c-6.7,0-12.6,5.9-12.6,12.6s5.9,12.6,12.6,12.6s12.6-5.9,12.6-12.6C638.8,475.4,632.9,470.4,626.2,470.4z"/>
	<path class="st0" d="M542.2,495.6c-21,0-40.3,3.4-54.6,9.2c-1.7,0.8-2.5,2.5-2.5,4.2c0,0.8,0,1.7,0.8,1.7c1.7,5-0.8,10.1-15.1,13.4
		c-20.2,4.2-33.6,25.2-40.3,32.7c-8.4,8.4-32.7,13.4-29.4,8.4c2.5-4.2,14.3-16,20.2-28.6c5.9-11.8,10.9-15.1,18.5-26
		c2.5-3.4,10.1-14.3,12.6-23.5c2.5-8.4,1.7-19.3,2.5-24.4c1.7-6.7,7.6-21,8.4-28.6c0-4.2-18.5,6.7-27.7,6.7c-9.2,0-17.6-5-26-5.9
		c-10.1-0.8-16.8,7.6-25.2,6.7c-5-0.8-9.2-5-18.5-5.9c-12.6-0.8-28.6,7.6-57.9,5.9c-29.4-0.8-56.3-36.9-59.6-42.8
		c-4.2-6.7-9.2-6.7-15.1-1.7c-5.9,5-12.6,0.8-15.1-2.5c-4.2-6.7-14.3-26-30.2-30.2c-21.8-5.9-32.7,11.8-31.9,26
		c1.7,14.3,10.9,18.5,15.1,26c4.2,7.6,6.7,12.6,14.3,16c5.9,2.5,7.6,5.9,5.9,10.9c-1.7,4.2-7.6,5-11.8,5c-8.4,0-14.3-1.7-18.5-4.2
		c-5-3.4-9.2-7.6-13.4-15.1c-5-8.4-12.6-11.8-21.8-11.8c-4.2,0-8.4,0.8-11.8,3.4c-13.4,7.6-31.1,11.8-49.5,11.8h-21
		c39.5,118.4,152,203.2,283.8,203.2c105,0,198.2-54.6,251.1-136.9C566.6,497.2,554.8,495.6,542.2,495.6z"/>
	<path class="st1" d="M392.8,472C392.8,472,391.9,472,392.8,472c-4.2,5-5.9,5.9-9.2,8.4c-6.7,5-14.3-0.8-19.3-3.4
		c-10.9-6.7-20.2-2.5-21.8,2.5c-2.5,5,0,10.9,5.9,10.1c8.4-0.8,8.4,0,15.1,4.2c10.9,7.6,19.3,3.4,23.5,0c3.4-2.5,5.9-5,7.6-8.4
		C397.8,478.8,394.5,473.7,392.8,472L392.8,472z"/>
	<path d="M327.3,37.9c-165.4,0-298.9,133.5-298.9,298.9c0,33.6,5.9,65.5,16,95.7h21c18.5,0,35.3-4.2,49.5-11.8
		c3.4-1.7,7.6-3.4,11.8-3.4c9.2,0,16.8,3.4,21.8,11.8c4.2,7.6,8.4,11.8,13.4,15.1c4.2,2.5,10.1,5,18.5,4.2c4.2,0,10.1-0.8,11.8-5
		c1.7-5-0.8-8.4-5.9-10.9c-8.4-3.4-10.1-8.4-14.3-16c-4.2-7.6-13.4-11.8-15.1-26c-1.7-14.3,9.2-31.9,31.9-26
		c16,4.2,26,23.5,30.2,30.2c1.7,3.4,9.2,7.6,15.1,2.5c5.9-5,10.9-5,15.1,1.7c3.4,5.9,30.2,42,59.6,42.8c29.4,0.8,45.3-6.7,57.9-5.9
		c9.2,0,13.4,5,18.5,5.9c9.2,1.7,16-6.7,25.2-6.7c8.4,0,16.8,5.9,26,5.9c9.2,0,28.6-10.9,27.7-6.7c-0.8,8.4-6.7,21.8-8.4,28.6
		c-0.8,4.2,0,15.1-2.5,24.4c-2.5,9.2-10.9,20.2-12.6,23.5c-7.6,10.9-12.6,14.3-18.5,26c-6.7,12.6-17.6,25.2-20.2,28.6
		c-3.4,5,21,0,29.4-8.4c7.6-6.7,20.2-27.7,40.3-32.7c13.4-3.4,16.8-8.4,15.1-13.4c0-0.8-0.8-1.7-0.8-1.7c0-1.7,0.8-3.4,2.5-4.2
		c14.3-5.9,33.6-9.2,54.6-9.2c12.6,0,24.4,1.7,36.1,4.2c30.2-47,47.9-102.4,47.9-162.9C626.2,171.4,492.7,37.9,327.3,37.9z"/>
	<path class="st2" d="M496.1,257.1c-3.4,10.1-7.6,22.7-26,31.9c-2.5,1.7-3.4-0.8-2.5-3.4c6.7-11.8,8.4-15.1,10.1-20.2
		c2.5-6.7,4.2-16.8-1.7-37.8c-10.9-40.3-34.4-94.9-52.1-112.5c-16.8-16.8-46.2-21.8-73.1-15.1c-9.2,5-28.6,15.1-64.7,6.7
		c-62.1-14.3-71.4,16.8-74.7,31.1c-3.4,13.4-11.8,52.1-11.8,52.1c-2.5,16-6.7,42.8,89.8,61.3c45.3,8.4,47,20.2,49.5,28.6
		c3.4,15.1,9.2,23.5,16,27.7c6.7,4.2,0,7.6-7.6,8.4c-19.3,1.7-89.8-18.5-131.8-42c-34.4-21-35.3-40.3-26.9-56.3
		c-52.9-4.2-91.5,5.9-98.2,30.2c-11.8,42,92.4,114.2,212.4,150.3C428,435.9,557.4,409.9,571.6,331
		C577.5,295.7,547.3,268.8,496.1,257.1z M303.8,180.7c-34.4,2.5-37.8,5.9-44.5,13.4c-9.2,9.2-21-13.4-21-13.4
		c-7.6-1.7-16-13.4-10.9-24.4c5-10.9,13.4-7.6,16-4.2c3.4,4.2,10.1,10.9,19.3,10.1c9.2,0,19.3-2.5,34.4-2.5s24.4,5.9,25.2,10.1
		C322.2,175.6,320.6,179,303.8,180.7z M378.5,146.2c-5.9,0-11.8-0.8-16.8-2.5c-0.8,0-0.8-0.8-0.8-0.8c0-0.8,0.8-0.8,0.8-0.8
		c11.8-2.5,20.2-7.6,19.3-11.8c-0.8-5.9-16.8-8.4-35.3-6.7c-1.7,0-4.2,0.8-5.9,0.8l0,0c-0.8,0-0.8,0-0.8-0.8c0,0,0-0.8,0.8-0.8
		c6.7-3.4,16.8-6.7,27.7-7.6c4.2-1.7,7.6-1.7,10.1-1.7c0.8,0,0.8,0,1.7,0c19.3,0.8,34.4,8.4,34.4,16.8
		C413.8,139.5,397.8,146.2,378.5,146.2z"/>
	<g>
		<path d="M779,356.2c0-27.7-0.8-47.9-1.7-65.5h44.5l1.7,38.6h1.7c10.1-28.6,33.6-43.7,56.3-43.7c5,0,8.4,0,11.8,0.8v48.7
			c-5-0.8-9.2-1.7-16-1.7c-24.4,0-42,16-46.2,39.5c-0.8,4.2-1.7,10.1-1.7,16v106.6h-52.1L779,356.2z"/>
		<path d="M956.2,406.5c1.7,36.9,30.2,53.7,63,53.7c23.5,0,41.1-3.4,56.3-9.2l7.6,35.3c-17.6,7.6-42,12.6-71.4,12.6
			c-66.3,0-105.8-41.1-105.8-104.1c0-56.3,34.4-110,99.9-110c66.3,0,88.2,54.6,88.2,99.9c0,9.2-0.8,17.6-1.7,21.8L956.2,406.5z
			 M1046.1,370.4c0-19.3-8.4-49.5-42.8-49.5c-31.9,0-45.3,28.6-47.9,49.5H1046.1z"/>
		<path d="M1708.6,446c0,16,0.8,32.7,3.4,48.7h-18.5l-3.4-29.4h-0.8c-10.1,16-32.7,34.4-65.5,34.4c-41.1,0-60.5-29.4-60.5-56.3
			c0-47,42-75.6,125.1-74.7v-5.9c0-20.2-4.2-60.5-52.1-60.5c-17.6,0-36.9,5-51.2,15.1l-6.7-15.1c18.5-12.6,42-17.6,60.5-17.6
			c58.8,0,70.5,44.5,70.5,81.5V446H1708.6z M1688.5,385.6c-44.5-1.7-103.3,5.9-103.3,54.6c0,29.4,19.3,42.8,41.1,42.8
			c34.4,0,53.7-21,60.5-41.1c1.7-4.2,2.5-8.4,2.5-12.6v-43.7H1688.5z"/>
		<path d="M1789.2,244.5v45.3h58.8v16.8h-58.8v133.5c0,26,8.4,42.8,30.2,42.8c10.9,0,17.6-1.7,23.5-3.4l2.5,16c-6.7,2.5-16,5-28.6,5
			c-15.1,0-27.7-5-35.3-14.3c-9.2-10.9-12.6-27.7-12.6-48.7v-131h-34.4v-16.8h34.4V252L1789.2,244.5z"/>
		<path d="M1873.2,483.8h2.5l4.2,6.7h2.5l-4.2-6.7c2.5,0,4.2-1.7,4.2-4.2c0-3.4-1.7-4.2-5-4.2h-5.9v15.1h2.5v-6.7H1873.2z
			 M1873.2,482.1v-5h3.4c1.7,0,3.4,0,3.4,2.5s-1.7,2.5-3.4,2.5H1873.2z"/>
		<path d="M1891.7,483c0,8.4-6.7,15.1-15.1,15.1c-8.4,0-15.1-6.7-15.1-15.1s6.7-15.1,15.1-15.1S1891.7,474.6,1891.7,483z
			 M1876.5,470.4c-6.7,0-12.6,5.9-12.6,12.6s5.9,12.6,12.6,12.6s12.6-5.9,12.6-12.6C1888.3,476.2,1883.3,470.4,1876.5,470.4z"/>
		<path d="M1266.9,311.7h-0.8c-9.2-15.1-29.4-26.9-57.1-26.9c-49.5,0-92.4,41.1-91.5,109.2c0,63,38.6,105,87.3,105
			c29.4,0,54.6-14.3,66.3-36.9h0.8l2.5,32.7h46.2c-0.8-14.3-1.7-36.1-1.7-57.1V211.7l-52.1-15.1V311.7z M1266.9,405.7
			c0,5,0,10.9-1.7,15.1c-5,22.7-23.5,36.9-44.5,36.9c-32.7,0-51.2-27.7-51.2-65.5s18.5-67.2,52.1-67.2c23.5,0,40.3,16.8,44.5,36.1
			c0.8,4.2,0.8,9.2,0.8,13.4V405.7z"/>
		<path d="M1455.9,284.8c-16,0-29.4,4.2-41.1,11.8c-12.6,7.6-21.8,18.5-27.7,29.4h-0.8v-95.7l-20.2-5.9v270.4h20.2V369.6
			c0-8.4,0.8-14.3,2.5-20.2c8.4-25.2,32.7-46.2,62.1-46.2c42,0,56.3,33.6,56.3,70.5v121.8h20.2V371.3
			C1526.4,294.9,1475.2,284.8,1455.9,284.8z"/>
	</g>
</g>
</svg>
