<?xml version="1.0" encoding="utf-8"?>
<!-- Generator: Adobe Illustrator 19.2.0, SVG Export Plug-In . SVG Version: 6.00 Build 0)  -->
<svg version="1.1" id="Layer_1" xmlns="http://www.w3.org/2000/svg" xmlns:xlink="http://www.w3.org/1999/xlink" x="0px" y="0px"
	 viewBox="0 0 216.7 71.2" style="enable-background:new 0 0 216.7 71.2;" xml:space="preserve">
<style type="text/css">
	.st0{fill:#FFFFFF;}
	.st1{fill:#2E2A25;}
	.st2{fill:#FF0000;}
</style>
<path class="st0" d="M61.2,54.5c-2.5,0-4.8,0.4-6.5,1.1c-0.2,0.1-0.3,0.3-0.3,0.5c0,0.1,0,0.2,0.1,0.2c0.2,0.6-0.1,1.2-1.8,1.6
	c-2.4,0.5-4,3-4.8,3.9c-1,1-3.9,1.6-3.5,1c0.3-0.5,1.7-1.9,2.4-3.4c0.7-1.4,1.3-1.8,2.2-3.1c0.3-0.4,1.2-1.7,1.5-2.8
	c0.3-1,0.2-2.3,0.3-2.9c0.2-0.8,0.9-2.5,1-3.4c0-0.5-2.2,0.8-3.3,0.8s-2.1-0.6-3.1-0.7c-1.2-0.1-2,0.9-3,0.8
	c-0.6-0.1-1.1-0.6-2.2-0.7c-1.5-0.1-3.4,0.9-6.9,0.7c-3.5-0.1-6.7-4.4-7.1-5.1c-0.5-0.8-1.1-0.8-1.8-0.2c-0.7,0.6-1.5,0.1-1.8-0.3
	c-0.5-0.8-1.7-3.1-3.6-3.6c-2.6-0.7-3.9,1.4-3.8,3.1c0.2,1.7,1.3,2.2,1.8,3.1c0.5,0.9,0.8,1.5,1.7,1.9c0.7,0.3,0.9,0.7,0.7,1.3
	c-0.2,0.5-0.9,0.6-1.4,0.6c-1,0-1.7-0.2-2.2-0.5c-0.6-0.4-1.1-0.9-1.6-1.8c-0.6-1-1.5-1.4-2.6-1.4c-0.5,0-1,0.1-1.4,0.4
	C8.6,46.5,6.5,47,4.3,47H1.8c4.7,14.1,18.1,24.2,33.8,24.2c12.5,0,23.6-6.5,29.9-16.3C64.1,54.7,62.7,54.5,61.2,54.5z"/>
<path class="st1" d="M43.4,51.7C43.4,51.7,43.3,51.7,43.4,51.7c-0.5,0.6-0.7,0.7-1.1,1c-0.8,0.6-1.7-0.1-2.3-0.4
	c-1.3-0.8-2.4-0.3-2.6,0.3c-0.3,0.6,0,1.3,0.7,1.2c1-0.1,1,0,1.8,0.5c1.3,0.9,2.3,0.4,2.8,0c0.4-0.3,0.7-0.6,0.9-1
	C44,52.5,43.6,51.9,43.4,51.7L43.4,51.7z"/>
<path d="M35.6,0C15.9,0,0,15.9,0,35.6c0,4,0.7,7.8,1.9,11.4h2.5c2.2,0,4.2-0.5,5.9-1.4c0.4-0.2,0.9-0.4,1.4-0.4c1.1,0,2,0.4,2.6,1.4
	c0.5,0.9,1,1.4,1.6,1.8c0.5,0.3,1.2,0.6,2.2,0.5c0.5,0,1.2-0.1,1.4-0.6c0.2-0.6-0.1-1-0.7-1.3c-1-0.4-1.2-1-1.7-1.9
	s-1.6-1.4-1.8-3.1c-0.2-1.7,1.1-3.8,3.8-3.1c1.9,0.5,3.1,2.8,3.6,3.6c0.2,0.4,1.1,0.9,1.8,0.3c0.7-0.6,1.3-0.6,1.8,0.2
	c0.4,0.7,3.6,5,7.1,5.1s5.4-0.8,6.9-0.7c1.1,0,1.6,0.6,2.2,0.7c1.1,0.2,1.9-0.8,3-0.8c1,0,2,0.7,3.1,0.7s3.4-1.3,3.3-0.8
	c-0.1,1-0.8,2.6-1,3.4c-0.1,0.5,0,1.8-0.3,2.9c-0.3,1.1-1.3,2.4-1.5,2.8c-0.9,1.3-1.5,1.7-2.2,3.1c-0.8,1.5-2.1,3-2.4,3.4
	c-0.4,0.6,2.5,0,3.5-1c0.9-0.8,2.4-3.3,4.8-3.9c1.6-0.4,2-1,1.8-1.6c0-0.1-0.1-0.2-0.1-0.2c0-0.2,0.1-0.4,0.3-0.5
	c1.7-0.7,4-1.1,6.5-1.1c1.5,0,2.9,0.2,4.3,0.5c3.6-5.6,5.7-12.2,5.7-19.4C71.2,15.9,55.3,0,35.6,0z"/>
<path class="st2" d="M55.7,26.1c-0.4,1.2-0.9,2.7-3.1,3.8c-0.3,0.2-0.4-0.1-0.3-0.4c0.8-1.4,1-1.8,1.2-2.4c0.3-0.8,0.5-2-0.2-4.5
	c-1.3-4.8-4.1-11.3-6.2-13.4c-2-2-5.5-2.6-8.7-1.8C37.3,8,35,9.2,30.7,8.2c-7.4-1.7-8.5,2-8.9,3.7c-0.4,1.6-1.4,6.2-1.4,6.2
	c-0.3,1.9-0.8,5.1,10.7,7.3c5.4,1,5.6,2.4,5.9,3.4c0.4,1.8,1.1,2.8,1.9,3.3c0.8,0.5,0,0.9-0.9,1c-2.3,0.2-10.7-2.2-15.7-5
	c-4.1-2.5-4.2-4.8-3.2-6.7C12.8,20.9,8.2,22.1,7.4,25c-1.4,5,11,13.6,25.3,17.9c14.9,4.5,30.3,1.4,32-8
	C65.4,30.7,61.8,27.5,55.7,26.1z M32.8,17c-4.1,0.3-4.5,0.7-5.3,1.6C26.4,19.7,25,17,25,17c-0.9-0.2-1.9-1.6-1.3-2.9
	s1.6-0.9,1.9-0.5c0.4,0.5,1.2,1.3,2.3,1.2c1.1,0,2.3-0.3,4.1-0.3c1.8,0,2.9,0.7,3,1.2C35,16.4,34.8,16.8,32.8,17z M41.7,12.9
	c-0.7,0-1.4-0.1-2-0.3c-0.1,0-0.1-0.1-0.1-0.1c0-0.1,0.1-0.1,0.1-0.1c1.4-0.3,2.4-0.9,2.3-1.4c-0.1-0.7-2-1-4.2-0.8
	c-0.2,0-0.5,0.1-0.7,0.1l0,0c-0.1,0-0.1,0-0.1-0.1c0,0,0-0.1,0.1-0.1c0.8-0.4,2-0.8,3.3-0.9C40.9,9,41.3,9,41.6,9c0.1,0,0.1,0,0.2,0
	c2.3,0.1,4.1,1,4.1,2C45.9,12.1,44,12.9,41.7,12.9z"/>
<g>
	<path d="M89.4,37.9c0-3.3-0.1-5.7-0.2-7.8h5.3l0.2,4.6h0.2c1.2-3.4,4-5.2,6.7-5.2c0.6,0,1,0,1.4,0.1v5.8c-0.6-0.1-1.1-0.2-1.9-0.2
		c-2.9,0-5,1.9-5.5,4.7c-0.1,0.5-0.2,1.2-0.2,1.9v12.7h-6.2L89.4,37.9z"/>
	<path d="M110.5,43.9c0.2,4.4,3.6,6.4,7.5,6.4c2.8,0,4.9-0.4,6.7-1.1l0.9,4.2c-2.1,0.9-5,1.5-8.5,1.5c-7.9,0-12.6-4.9-12.6-12.4
		c0-6.7,4.1-13.1,11.9-13.1c7.9,0,10.5,6.5,10.5,11.9c0,1.1-0.1,2.1-0.2,2.6L110.5,43.9z M121.2,39.6c0-2.3-1-5.9-5.1-5.9
		c-3.8,0-5.4,3.4-5.7,5.9H121.2z"/>
	<path d="M200.1,48.6c0,1.9,0.1,3.9,0.4,5.8h-2.2l-0.4-3.5h-0.1c-1.2,1.9-3.9,4.1-7.8,4.1c-4.9,0-7.2-3.5-7.2-6.7
		c0-5.6,5-9,14.9-8.9v-0.7c0-2.4-0.5-7.2-6.2-7.2c-2.1,0-4.4,0.6-6.1,1.8l-0.8-1.8c2.2-1.5,5-2.1,7.2-2.1c7,0,8.4,5.3,8.4,9.7
		L200.1,48.6L200.1,48.6z M197.7,41.4c-5.3-0.2-12.3,0.7-12.3,6.5c0,3.5,2.3,5.1,4.9,5.1c4.1,0,6.4-2.5,7.2-4.9
		c0.2-0.5,0.3-1,0.3-1.5L197.7,41.4L197.7,41.4z"/>
	<path d="M209.7,24.6V30h7v2h-7v15.9c0,3.1,1,5.1,3.6,5.1c1.3,0,2.1-0.2,2.8-0.4l0.3,1.9c-0.8,0.3-1.9,0.6-3.4,0.6
		c-1.8,0-3.3-0.6-4.2-1.7c-1.1-1.3-1.5-3.3-1.5-5.8V32h-4.1v-2h4.1v-4.5L209.7,24.6z"/>
	<path d="M147.5,32.6h-0.1c-1.1-1.8-3.5-3.2-6.8-3.2c-5.9,0-11,4.9-10.9,13c0,7.5,4.6,12.5,10.4,12.5c3.5,0,6.5-1.7,7.9-4.4h0.1
		l0.3,3.9h5.5c-0.1-1.7-0.2-4.3-0.2-6.8V20.7l-6.2-1.8V32.6z M147.5,43.8c0,0.6,0,1.3-0.2,1.8c-0.6,2.7-2.8,4.4-5.3,4.4
		c-3.9,0-6.1-3.3-6.1-7.8s2.2-8,6.2-8c2.8,0,4.8,2,5.3,4.3c0.1,0.5,0.1,1.1,0.1,1.6V43.8z"/>
	<path d="M170,29.4c-1.9,0-3.5,0.5-4.9,1.4c-1.5,0.9-2.6,2.2-3.3,3.5h-0.1V22.9l-2.4-0.7v32.2h2.4V39.5c0-1,0.1-1.7,0.3-2.4
		c1-3,3.9-5.5,7.4-5.5c5,0,6.7,4,6.7,8.4v14.5h2.4V39.7C178.4,30.6,172.3,29.4,170,29.4z"/>
</g>
</svg>
